<?xml version="1.0" encoding="UTF-8" standalone="no"?>
<!DOCTYPE svg PUBLIC "-//W3C//DTD SVG 1.1//EN" "http://www.w3.org/Graphics/SVG/1.1/DTD/svg11.dtd">
<svg width="100%" height="100%" viewBox="0 0 32 32" version="1.1" xmlns="http://www.w3.org/2000/svg" xmlns:xlink="http://www.w3.org/1999/xlink" xml:space="preserve" xmlns:serif="http://www.serif.com/" style="fill-rule:evenodd;clip-rule:evenodd;stroke-linecap:round;stroke-linejoin:round;stroke-miterlimit:1.5;">
    <path d="M32,8L32,24C32,28.415 28.415,32 24,32L8,32C3.585,32 0,28.415 0,24L0,8C0,3.585 3.585,0 8,0L24,0C28.415,0 32,3.585 32,8Z"/>
    <g id="L" transform="matrix(0.5,0,0,0.5,18.5,12.5)">
        <g transform="matrix(1,0,0,1,3,4)">
            <circle cx="10" cy="6" r="2" style="fill:white;stroke:black;stroke-width:2px;"/>
        </g>
        <g transform="matrix(1,0,0,1,-5,4)">
            <circle cx="18" cy="12" r="2" style="fill:white;stroke:black;stroke-width:2px;"/>
        </g>
        <g transform="matrix(1,0,0,1,1,4)">
            <circle cx="12" cy="18" r="2" style="fill:white;stroke:black;stroke-width:2px;"/>
        </g>
    </g>
    <g id="I" transform="matrix(0.5,0,0,0.5,12.5,12.5)">
        <g transform="matrix(1,0,0,1,1,4)">
            <circle cx="18" cy="6" r="2" style="fill:white;stroke:black;stroke-width:2px;"/>
        </g>
        <g transform="matrix(1,0,0,1,-5,4)">
            <circle cx="18" cy="12" r="2" style="fill:white;stroke:black;stroke-width:2px;"/>
        </g>
    </g>
    <g id="E" transform="matrix(0.5,0,0,0.5,6.5,12.5)">
        <g transform="matrix(1,0,0,1,3,4)">
            <circle cx="10" cy="6" r="2" style="fill:white;stroke:black;stroke-width:2px;"/>
        </g>
        <g transform="matrix(1,0,0,1,1,4)">
            <circle cx="18" cy="12" r="2" style="fill:white;stroke:black;stroke-width:2px;"/>
        </g>
        <g transform="matrix(1,0,0,1,1,4)">
            <circle cx="18" cy="12" r="2" style="fill:white;stroke:black;stroke-width:2px;"/>
        </g>
    </g>
    <g id="N" transform="matrix(0.5,0,0,0.5,0.5,12.5)">
        <g transform="matrix(1,0,0,1,3,4)">
            <circle cx="10" cy="6" r="2" style="fill:white;stroke:black;stroke-width:2px;"/>
        </g>
        <g transform="matrix(1,0,0,1,1,4)">
            <circle cx="18" cy="6" r="2" style="fill:white;stroke:black;stroke-width:2px;"/>
        </g>
        <g transform="matrix(1,0,0,1,1,4)">
            <circle cx="18" cy="12" r="2" style="fill:white;stroke:black;stroke-width:2px;"/>
        </g>
        <g transform="matrix(1,0,0,1,1,4)">
            <circle cx="18" cy="12" r="2" style="fill:white;stroke:black;stroke-width:2px;"/>
        </g>
        <g transform="matrix(1,0,0,1,1,4)">
            <circle cx="12" cy="18" r="2" style="fill:white;stroke:black;stroke-width:2px;"/>
        </g>
    </g>
    <g id="L1" serif:id="L" transform="matrix(0.5,0,0,-0.5,18.5,19.5)">
        <g transform="matrix(1,0,0,1,3,4)">
            <circle cx="10" cy="6" r="2" style="fill:white;stroke:black;stroke-width:2px;"/>
        </g>
        <g transform="matrix(1,0,0,1,-5,4)">
            <circle cx="18" cy="12" r="2" style="fill:white;stroke:black;stroke-width:2px;"/>
        </g>
        <g transform="matrix(1,0,0,1,1,4)">
            <circle cx="12" cy="18" r="2" style="fill:white;stroke:black;stroke-width:2px;"/>
        </g>
    </g>
    <g id="I1" serif:id="I" transform="matrix(0.5,0,0,-0.5,12.5,19.5)">
        <g transform="matrix(1,0,0,1,1,4)">
            <circle cx="18" cy="6" r="2" style="fill:white;stroke:black;stroke-width:2px;"/>
        </g>
        <g transform="matrix(1,0,0,1,-5,4)">
            <circle cx="18" cy="12" r="2" style="fill:white;stroke:black;stroke-width:2px;"/>
        </g>
    </g>
    <g id="E1" serif:id="E" transform="matrix(0.5,0,0,-0.5,6.5,19.5)">
        <g transform="matrix(1,0,0,1,3,4)">
            <circle cx="10" cy="6" r="2" style="fill:white;stroke:black;stroke-width:2px;"/>
        </g>
        <g transform="matrix(1,0,0,1,1,4)">
            <circle cx="18" cy="12" r="2" style="fill:white;stroke:black;stroke-width:2px;"/>
        </g>
        <g transform="matrix(1,0,0,1,1,4)">
            <circle cx="18" cy="12" r="2" style="fill:white;stroke:black;stroke-width:2px;"/>
        </g>
    </g>
    <g id="N1" serif:id="N" transform="matrix(0.5,0,0,-0.5,0.5,19.5)">
        <g transform="matrix(1,0,0,1,3,4)">
            <circle cx="10" cy="6" r="2" style="fill:white;stroke:black;stroke-width:2px;"/>
        </g>
        <g transform="matrix(1,0,0,1,1,4)">
            <circle cx="18" cy="6" r="2" style="fill:white;stroke:black;stroke-width:2px;"/>
        </g>
        <g transform="matrix(1,0,0,1,1,4)">
            <circle cx="18" cy="12" r="2" style="fill:white;stroke:black;stroke-width:2px;"/>
        </g>
        <g transform="matrix(1,0,0,1,1,4)">
            <circle cx="18" cy="12" r="2" style="fill:white;stroke:black;stroke-width:2px;"/>
        </g>
        <g transform="matrix(1,0,0,1,1,4)">
            <circle cx="12" cy="18" r="2" style="fill:white;stroke:black;stroke-width:2px;"/>
        </g>
    </g>
</svg>
